<?xml version='1.0' encoding='UTF-8'?>
<svg class="interdato-qr" role="img" aria-labelledby="qr-title qr-desc" width="43mm" height="43mm" version="1.1" viewBox="0 0 43 43" xmlns="http://www.w3.org/2000/svg"><title id="qr-title">QR del sitio de Sostenibilidad Digital ESG de Interdato</title><desc id="qr-desc">C?digo QR que abre https://interdato-sostenibilidaddigital.github.io/ESG---Sostenibilidad-Digital/</desc><path d="M3,3H4V4H3zM4,3H5V4H4zM5,3H6V4H5zM6,3H7V4H6zM7,3H8V4H7zM8,3H9V4H8zM9,3H10V4H9zM12,3H13V4H12zM13,3H14V4H13zM14,3H15V4H14zM16,3H17V4H16zM20,3H21V4H20zM21,3H22V4H21zM22,3H23V4H22zM24,3H25V4H24zM25,3H26V4H25zM26,3H27V4H26zM30,3H31V4H30zM33,3H34V4H33zM34,3H35V4H34zM35,3H36V4H35zM36,3H37V4H36zM37,3H38V4H37zM38,3H39V4H38zM39,3H40V4H39zM3,4H4V5H3zM9,4H10V5H9zM12,4H13V5H12zM13,4H14V5H13zM15,4H16V5H15zM17,4H18V5H17zM18,4H19V5H18zM19,4H20V5H19zM20,4H21V5H20zM24,4H25V5H24zM25,4H26V5H25zM26,4H27V5H26zM27,4H28V5H27zM29,4H30V5H29zM30,4H31V5H30zM33,4H34V5H33zM39,4H40V5H39zM3,5H4V6H3zM5,5H6V6H5zM6,5H7V6H6zM7,5H8V6H7zM9,5H10V6H9zM13,5H14V6H13zM17,5H18V6H17zM18,5H19V6H18zM19,5H20V6H19zM20,5H21V6H20zM23,5H24V6H23zM26,5H27V6H26zM27,5H28V6H27zM30,5H31V6H30zM33,5H34V6H33zM35,5H36V6H35zM36,5H37V6H36zM37,5H38V6H37zM39,5H40V6H39zM3,6H4V7H3zM5,6H6V7H5zM6,6H7V7H6zM7,6H8V7H7zM9,6H10V7H9zM12,6H13V7H12zM14,6H15V7H14zM15,6H16V7H15zM17,6H18V7H17zM18,6H19V7H18zM21,6H22V7H21zM22,6H23V7H22zM25,6H26V7H25zM29,6H30V7H29zM31,6H32V7H31zM33,6H34V7H33zM35,6H36V7H35zM36,6H37V7H36zM37,6H38V7H37zM39,6H40V7H39zM3,7H4V8H3zM5,7H6V8H5zM6,7H7V8H6zM7,7H8V8H7zM9,7H10V8H9zM12,7H13V8H12zM14,7H15V8H14zM18,7H19V8H18zM19,7H20V8H19zM21,7H22V8H21zM26,7H27V8H26zM28,7H29V8H28zM29,7H30V8H29zM30,7H31V8H30zM31,7H32V8H31zM33,7H34V8H33zM35,7H36V8H35zM36,7H37V8H36zM37,7H38V8H37zM39,7H40V8H39zM3,8H4V9H3zM9,8H10V9H9zM11,8H12V9H11zM13,8H14V9H13zM14,8H15V9H14zM16,8H17V9H16zM18,8H19V9H18zM22,8H23V9H22zM23,8H24V9H23zM24,8H25V9H24zM25,8H26V9H25zM29,8H30V9H29zM30,8H31V9H30zM31,8H32V9H31zM33,8H34V9H33zM39,8H40V9H39zM3,9H4V10H3zM4,9H5V10H4zM5,9H6V10H5zM6,9H7V10H6zM7,9H8V10H7zM8,9H9V10H8zM9,9H10V10H9zM11,9H12V10H11zM13,9H14V10H13zM15,9H16V10H15zM17,9H18V10H17zM19,9H20V10H19zM21,9H22V10H21zM23,9H24V10H23zM25,9H26V10H25zM27,9H28V10H27zM29,9H30V10H29zM31,9H32V10H31zM33,9H34V10H33zM34,9H35V10H34zM35,9H36V10H35zM36,9H37V10H36zM37,9H38V10H37zM38,9H39V10H38zM39,9H40V10H39zM13,10H14V11H13zM14,10H15V11H14zM17,10H18V11H17zM18,10H19V11H18zM19,10H20V11H19zM20,10H21V11H20zM21,10H22V11H21zM23,10H24V11H23zM24,10H25V11H24zM25,10H26V11H25zM27,10H28V11H27zM29,10H30V11H29zM30,10H31V11H30zM31,10H32V11H31zM3,11H4V12H3zM6,11H7V12H6zM8,11H9V12H8zM9,11H10V12H9zM11,11H12V12H11zM12,11H13V12H12zM13,11H14V12H13zM14,11H15V12H14zM18,11H19V12H18zM19,11H20V12H19zM23,11H24V12H23zM24,11H25V12H24zM27,11H28V12H27zM28,11H29V12H28zM29,11H30V12H29zM31,11H32V12H31zM32,11H33V12H32zM34,11H35V12H34zM4,12H5V13H4zM5,12H6V13H5zM6,12H7V13H6zM10,12H11V13H10zM11,12H12V13H11zM13,12H14V13H13zM17,12H18V13H17zM18,12H19V13H18zM19,12H20V13H19zM20,12H21V13H20zM23,12H24V13H23zM24,12H25V13H24zM27,12H28V13H27zM29,12H30V13H29zM31,12H32V13H31zM39,12H40V13H39zM3,13H4V14H3zM4,13H5V14H4zM5,13H6V14H5zM7,13H8V14H7zM9,13H10V14H9zM10,13H11V14H10zM11,13H12V14H11zM12,13H13V14H12zM14,13H15V14H14zM15,13H16V14H15zM18,13H19V14H18zM20,13H21V14H20zM22,13H23V14H22zM24,13H25V14H24zM27,13H28V14H27zM31,13H32V14H31zM35,13H36V14H35zM36,13H37V14H36zM38,13H39V14H38zM39,13H40V14H39zM4,14H5V15H4zM5,14H6V15H5zM8,14H9V15H8zM10,14H11V15H10zM11,14H12V15H11zM13,14H14V15H13zM15,14H16V15H15zM19,14H20V15H19zM21,14H22V15H21zM22,14H23V15H22zM23,14H24V15H23zM24,14H25V15H24zM27,14H28V15H27zM28,14H29V15H28zM32,14H33V15H32zM35,14H36V15H35zM4,15H5V16H4zM5,15H6V16H5zM6,15H7V16H6zM9,15H10V16H9zM10,15H11V16H10zM11,15H12V16H11zM13,15H14V16H13zM15,15H16V16H15zM17,15H18V16H17zM18,15H19V16H18zM19,15H20V16H19zM20,15H21V16H20zM22,15H23V16H22zM23,15H24V16H23zM24,15H25V16H24zM26,15H27V16H26zM27,15H28V16H27zM28,15H29V16H28zM29,15H30V16H29zM31,15H32V16H31zM32,15H33V16H32zM33,15H34V16H33zM38,15H39V16H38zM39,15H40V16H39zM5,16H6V17H5zM7,16H8V17H7zM8,16H9V17H8zM12,16H13V17H12zM13,16H14V17H13zM17,16H18V17H17zM22,16H23V17H22zM23,16H24V17H23zM24,16H25V17H24zM25,16H26V17H25zM27,16H28V17H27zM32,16H33V17H32zM33,16H34V17H33zM34,16H35V17H34zM37,16H38V17H37zM39,16H40V17H39zM3,17H4V18H3zM4,17H5V18H4zM5,17H6V18H5zM9,17H10V18H9zM10,17H11V18H10zM11,17H12V18H11zM12,17H13V18H12zM14,17H15V18H14zM17,17H18V18H17zM20,17H21V18H20zM25,17H26V18H25zM26,17H27V18H26zM29,17H30V18H29zM31,17H32V18H31zM32,17H33V18H32zM33,17H34V18H33zM34,17H35V18H34zM35,17H36V18H35zM37,17H38V18H37zM39,17H40V18H39zM5,18H6V19H5zM6,18H7V19H6zM11,18H12V19H11zM14,18H15V19H14zM15,18H16V19H15zM16,18H17V19H16zM17,18H18V19H17zM19,18H20V19H19zM20,18H21V19H20zM22,18H23V19H22zM23,18H24V19H23zM24,18H25V19H24zM25,18H26V19H25zM26,18H27V19H26zM27,18H28V19H27zM28,18H29V19H28zM30,18H31V19H30zM31,18H32V19H31zM33,18H34V19H33zM35,18H36V19H35zM38,18H39V19H38zM3,19H4V20H3zM5,19H6V20H5zM7,19H8V20H7zM9,19H10V20H9zM17,19H18V20H17zM19,19H20V20H19zM20,19H21V20H20zM21,19H22V20H21zM22,19H23V20H22zM23,19H24V20H23zM24,19H25V20H24zM25,19H26V20H25zM27,19H28V20H27zM31,19H32V20H31zM32,19H33V20H32zM33,19H34V20H33zM34,19H35V20H34zM35,19H36V20H35zM36,19H37V20H36zM37,19H38V20H37zM3,20H4V21H3zM4,20H5V21H4zM5,20H6V21H5zM6,20H7V21H6zM7,20H8V21H7zM8,20H9V21H8zM11,20H12V21H11zM12,20H13V21H12zM13,20H14V21H13zM15,20H16V21H15zM16,20H17V21H16zM18,20H19V21H18zM20,20H21V21H20zM26,20H27V21H26zM27,20H28V21H27zM29,20H30V21H29zM30,20H31V21H30zM31,20H32V21H31zM35,20H36V21H35zM36,20H37V21H36zM38,20H39V21H38zM39,20H40V21H39zM3,21H4V22H3zM5,21H6V22H5zM8,21H9V22H8zM9,21H10V22H9zM11,21H12V22H11zM13,21H14V22H13zM15,21H16V22H15zM16,21H17V22H16zM21,21H22V22H21zM25,21H26V22H25zM32,21H33V22H32zM34,21H35V22H34zM38,21H39V22H38zM39,21H40V22H39zM4,22H5V23H4zM5,22H6V23H5zM12,22H13V23H12zM13,22H14V23H13zM15,22H16V23H15zM16,22H17V23H16zM17,22H18V23H17zM18,22H19V23H18zM19,22H20V23H19zM20,22H21V23H20zM21,22H22V23H21zM22,22H23V23H22zM23,22H24V23H23zM24,22H25V23H24zM26,22H27V23H26zM29,22H30V23H29zM30,22H31V23H30zM32,22H33V23H32zM33,22H34V23H33zM34,22H35V23H34zM35,22H36V23H35zM36,22H37V23H36zM37,22H38V23H37zM38,22H39V23H38zM3,23H4V24H3zM6,23H7V24H6zM8,23H9V24H8zM9,23H10V24H9zM10,23H11V24H10zM11,23H12V24H11zM12,23H13V24H12zM13,23H14V24H13zM15,23H16V24H15zM16,23H17V24H16zM19,23H20V24H19zM24,23H25V24H24zM27,23H28V24H27zM28,23H29V24H28zM29,23H30V24H29zM30,23H31V24H30zM31,23H32V24H31zM33,23H34V24H33zM35,23H36V24H35zM38,23H39V24H38zM3,24H4V25H3zM8,24H9V25H8zM10,24H11V25H10zM14,24H15V25H14zM17,24H18V25H17zM19,24H20V25H19zM21,24H22V25H21zM23,24H24V25H23zM24,24H25V25H24zM27,24H28V25H27zM28,24H29V25H28zM29,24H30V25H29zM31,24H32V25H31zM33,24H34V25H33zM34,24H35V25H34zM36,24H37V25H36zM38,24H39V25H38zM39,24H40V25H39zM5,25H6V26H5zM7,25H8V26H7zM8,25H9V26H8zM9,25H10V26H9zM10,25H11V26H10zM11,25H12V26H11zM17,25H18V26H17zM20,25H21V26H20zM22,25H23V26H22zM25,25H26V26H25zM27,25H28V26H27zM28,25H29V26H28zM32,25H33V26H32zM33,25H34V26H33zM38,25H39V26H38zM39,25H40V26H39zM4,26H5V27H4zM5,26H6V27H5zM8,26H9V27H8zM11,26H12V27H11zM14,26H15V27H14zM15,26H16V27H15zM16,26H17V27H16zM19,26H20V27H19zM21,26H22V27H21zM22,26H23V27H22zM23,26H24V27H23zM24,26H25V27H24zM27,26H28V27H27zM28,26H29V27H28zM32,26H33V27H32zM33,26H34V27H33zM3,27H4V28H3zM4,27H5V28H4zM5,27H6V28H5zM8,27H9V28H8zM9,27H10V28H9zM10,27H11V28H10zM11,27H12V28H11zM14,27H15V28H14zM17,27H18V28H17zM18,27H19V28H18zM19,27H20V28H19zM21,27H22V28H21zM23,27H24V28H23zM24,27H25V28H24zM25,27H26V28H25zM27,27H28V28H27zM28,27H29V28H28zM31,27H32V28H31zM33,27H34V28H33zM36,27H37V28H36zM38,27H39V28H38zM39,27H40V28H39zM5,28H6V29H5zM6,28H7V29H6zM7,28H8V29H7zM8,28H9V29H8zM10,28H11V29H10zM13,28H14V29H13zM14,28H15V29H14zM15,28H16V29H15zM18,28H19V29H18zM20,28H21V29H20zM22,28H23V29H22zM23,28H24V29H23zM25,28H26V29H25zM27,28H28V29H27zM31,28H32V29H31zM32,28H33V29H32zM33,28H34V29H33zM38,28H39V29H38zM39,28H40V29H39zM3,29H4V30H3zM6,29H7V30H6zM7,29H8V30H7zM8,29H9V30H8zM9,29H10V30H9zM10,29H11V30H10zM11,29H12V30H11zM13,29H14V30H13zM14,29H15V30H14zM18,29H19V30H18zM19,29H20V30H19zM20,29H21V30H20zM23,29H24V30H23zM26,29H27V30H26zM27,29H28V30H27zM28,29H29V30H28zM33,29H34V30H33zM34,29H35V30H34zM35,29H36V30H35zM39,29H40V30H39zM4,30H5V31H4zM5,30H6V31H5zM6,30H7V31H6zM7,30H8V31H7zM8,30H9V31H8zM10,30H11V31H10zM11,30H12V31H11zM12,30H13V31H12zM14,30H15V31H14zM15,30H16V31H15zM16,30H17V31H16zM19,30H20V31H19zM20,30H21V31H20zM22,30H23V31H22zM24,30H25V31H24zM28,30H29V31H28zM29,30H30V31H29zM30,30H31V31H30zM31,30H32V31H31zM32,30H33V31H32zM35,30H36V31H35zM39,30H40V31H39zM3,31H4V32H3zM4,31H5V32H4zM5,31H6V32H5zM9,31H10V32H9zM11,31H12V32H11zM14,31H15V32H14zM17,31H18V32H17zM18,31H19V32H18zM20,31H21V32H20zM23,31H24V32H23zM24,31H25V32H24zM25,31H26V32H25zM30,31H31V32H30zM31,31H32V32H31zM32,31H33V32H32zM33,31H34V32H33zM34,31H35V32H34zM35,31H36V32H35zM37,31H38V32H37zM38,31H39V32H38zM11,32H12V33H11zM13,32H14V33H13zM14,32H15V33H14zM17,32H18V33H17zM20,32H21V33H20zM26,32H27V33H26zM27,32H28V33H27zM29,32H30V33H29zM31,32H32V33H31zM35,32H36V33H35zM36,32H37V33H36zM38,32H39V33H38zM39,32H40V33H39zM3,33H4V34H3zM4,33H5V34H4zM5,33H6V34H5zM6,33H7V34H6zM7,33H8V34H7zM8,33H9V34H8zM9,33H10V34H9zM13,33H14V34H13zM14,33H15V34H14zM15,33H16V34H15zM19,33H20V34H19zM20,33H21V34H20zM23,33H24V34H23zM28,33H29V34H28zM30,33H31V34H30zM31,33H32V34H31zM33,33H34V34H33zM35,33H36V34H35zM36,33H37V34H36zM38,33H39V34H38zM39,33H40V34H39zM3,34H4V35H3zM9,34H10V35H9zM11,34H12V35H11zM12,34H13V35H12zM13,34H14V35H13zM16,34H17V35H16zM17,34H18V35H17zM18,34H19V35H18zM23,34H24V35H23zM24,34H25V35H24zM31,34H32V35H31zM35,34H36V35H35zM36,34H37V35H36zM37,34H38V35H37zM3,35H4V36H3zM5,35H6V36H5zM6,35H7V36H6zM7,35H8V36H7zM9,35H10V36H9zM12,35H13V36H12zM16,35H17V36H16zM17,35H18V36H17zM18,35H19V36H18zM20,35H21V36H20zM26,35H27V36H26zM27,35H28V36H27zM28,35H29V36H28zM29,35H30V36H29zM31,35H32V36H31zM32,35H33V36H32zM33,35H34V36H33zM34,35H35V36H34zM35,35H36V36H35zM36,35H37V36H36zM38,35H39V36H38zM3,36H4V37H3zM5,36H6V37H5zM6,36H7V37H6zM7,36H8V37H7zM9,36H10V37H9zM11,36H12V37H11zM13,36H14V37H13zM14,36H15V37H14zM16,36H17V37H16zM18,36H19V37H18zM20,36H21V37H20zM23,36H24V37H23zM27,36H28V37H27zM34,36H35V37H34zM35,36H36V37H35zM36,36H37V37H36zM37,36H38V37H37zM38,36H39V37H38zM3,37H4V38H3zM5,37H6V38H5zM6,37H7V38H6zM7,37H8V38H7zM9,37H10V38H9zM12,37H13V38H12zM13,37H14V38H13zM15,37H16V38H15zM19,37H20V38H19zM21,37H22V38H21zM22,37H23V38H22zM23,37H24V38H23zM30,37H31V38H30zM34,37H35V38H34zM35,37H36V38H35zM36,37H37V38H36zM38,37H39V38H38zM39,37H40V38H39zM3,38H4V39H3zM9,38H10V39H9zM12,38H13V39H12zM13,38H14V39H13zM14,38H15V39H14zM18,38H19V39H18zM21,38H22V39H21zM22,38H23V39H22zM24,38H25V39H24zM25,38H26V39H25zM28,38H29V39H28zM30,38H31V39H30zM31,38H32V39H31zM32,38H33V39H32zM33,38H34V39H33zM34,38H35V39H34zM3,39H4V40H3zM4,39H5V40H4zM5,39H6V40H5zM6,39H7V40H6zM7,39H8V40H7zM8,39H9V40H8zM9,39H10V40H9zM11,39H12V40H11zM12,39H13V40H12zM14,39H15V40H14zM15,39H16V40H15zM16,39H17V40H16zM19,39H20V40H19zM20,39H21V40H20zM23,39H24V40H23zM24,39H25V40H24zM26,39H27V40H26zM28,39H29V40H28zM31,39H32V40H31zM32,39H33V40H32zM33,39H34V40H33zM38,39H39V40H38zM39,39H40V40H39z" id="qr-path" fill="#000000" fill-opacity="1" fill-rule="nonzero" stroke="none" /></svg>